#!OML:ASF H:\Male1\Project 1\Capture day 1\Session 1\Male1.ASF
:FULLY-SPECIFIED
:DEGREES
412
root 16.0338 15.2274 -1.12354 184.017 -83.8009 -191.146
lowerback 2.93122 1.57356 1.1475
upperback -1.28371 2.10043 -1.42887
thorax -2.86734 1.00888 -2.22382
lowerneck -9.16626 9.43627 13.2677
upperneck 9.08908 13.3493 -20.5257
head 6.65082 5.67239 -7.54855
rclavicle -3.03147e-014 8.15017e-015
rhumerus 67.2327 -12.6997 -20.75
rradius 74.3785
rwrist -8.69893
rhand -42.7022 48.2118
rfingers 7.12502
rthumb -15.5716 18.8187
lclavicle -3.03147e-014 8.15017e-015
lhumerus 67.9162 12.5868 15.1279
lradius 54.7155
lwrist -2.46738
lhand -46.3561 -7.01289
lfingers 7.12502
lthumb -19.0881 22.0704
rfemur 5.42391 9.48116 24.5975
rtibia 24.8902
rfoot -33.7784 -30.0266
rtoes -17.8144
lfemur 6.99113 -13.6536 -22.6097
ltibia 22.9609
lfoot -25.0271 25.6586
ltoes -9.15813
413
root 16.0101 15.2159 -1.13857 184.026 -83.9065 -191.353
lowerback 3.02488 1.48986 0.999775
upperback -1.27494 1.98286 -1.4261
thorax -2.92143 0.952429 -2.13499
lowerneck -9.24951 9.47533 13.3695
upperneck 8.72704 13.3597 -20.7912
head 6.58655 5.67154 -7.64811
rclavicle -1.4561e-014 2.5842e-015
rhumerus 67.853 -12.3785 -19.6583
rradius 74.4885
rwrist -5.78259
rhand -44.796 55.4032
rfingers 7.12502
rthumb -17.5873 26.1787
lclavicle -1.4561e-014 2.5842e-015
lhumerus 67.6863 12.5201 14.523
lradius 53.8723
lwrist -3.78419
lhand -46.1496 -6.73389
lfingers 7.12502
lthumb -18.8896 22.3689
rfemur 5.65495 9.214 24.6418
rtibia 25.0685
rfoot -33.8752 -29.9339
rtoes -18.1003
lfemur 7.2768 -13.5499 -22.5684
ltibia 22.9928
lfoot -25.0602 25.4244
ltoes -9.43281
414
root 15.9865 15.2069 -1.15098 183.969 -83.844 -191.456
lowerback 3.15522 1.44829 0.890098
upperback -1.30581 1.92117 -1.46186
thorax -3.03171 0.921797 -2.1118
lowerneck -9.26899 9.46811 13.4947
upperneck 8.4508 13.3065 -20.9431
head 6.51742 5.65 -7.72485
rclavicle -2.85256e-014 0
rhumerus 67.9697 -12.6229 -19.0503
rradius 73.614
rwrist -4.18463
rhand -46.4952 61.3009
rfingers 7.12502
rthumb -19.2219 32.2309
lclavicle -2.85256e-014 0
lhumerus 67.0706 12.9805 14.3624
lradius 52.181
lwrist -4.15968
lhand -46.2404 -6.35001
lfingers 7.12502
lthumb -18.9769 22.7443
rfemur 5.81134 9.02945 24.6438
rtibia 25.2758
rfoot -33.8457 -29.8135
rtoes -18.5353
lfemur 7.59134 -13.3738 -22.5481
ltibia 22.9423
lfoot -25.1219 25.2365
ltoes -9.53464
415
root 15.9632 15.2016 -1.16101 183.769 -83.6373 -191.357
lowerback 3.3008 1.44553 0.808656
upperback -1.37013 1.91093 -1.51875
thorax -3.18131 0.915405 -2.13008
lowerneck -9.28481 9.4322 13.5686
upperneck 8.27762 13.2172 -20.9412
head 6.45554 5.61608 -7.74597
rclavicle 6.4605e-016 1.27222e-014
rhumerus 67.5752 -13.4056 -18.9343
rradius 71.6649
rwrist -3.79888
rhand -47.808 64.8978
rfingers 7.12502
rthumb -20.4839 35.9583
lclavicle 6.4605e-016 1.27222e-014
lhumerus 66.0678 13.9729 14.598
lradius 49.8534
lwrist -3.73726
lhand -46.5525 -5.76886
lfingers 7.12502
lthumb -19.277 23.2957
rfemur 5.88778 8.91876 24.6173
rtibia 25.4787
rfoot -33.6872 -29.6706
rtoes -19.0521
lfemur 7.90157 -13.1687 -22.5403
ltibia 22.8294
lfoot -25.2126 25.1194
ltoes -9.45713
416
root 15.9401 15.2007 -1.16913 183.295 -83.3198 -190.908
lowerback 3.43829 1.47606 0.749119
upperback -1.45438 1.94538 -1.57711
thorax -3.3444 0.930552 -2.16506
lowerneck -9.32917 9.3598 13.5859
upperneck 8.22776 13.0867 -20.8241
head 6.41506 5.56176 -7.72403
rclavicle 9.93923e-015 -3.57812e-015
rhumerus 66.7104 -14.7141 -19.2771
rradius 68.6262
rwrist -4.37253
rhand -48.6762 65.2129
rfingers 7.12502
rthumb -21.3181 36.3655
lclavicle 9.93923e-015 -3.57812e-015
lhumerus 64.7058 15.5041 15.123
lradius 47.0902
lwrist -2.77777
lhand -46.9302 -4.97326
lfingers 7.12502
lthumb -19.6402 24.0546
rfemur 5.89249 8.88761 24.5976
rtibia 25.6427
rfoot -33.451 -29.5016
rtoes -19.5408
lfemur 8.17641 -12.984 -22.5269
ltibia 22.6818
lfoot -25.3367 25.0969
ltoes -9.20315
417
root 15.917 15.2042 -1.1758 182.647 -82.9312 -190.212
lowerback 3.55288 1.53446 0.688113
upperback -1.54059 2.01659 -1.63165
thorax -3.49538 0.964197 -2.19717
lowerneck -9.38143 9.25679 13.5587
upperneck 8.23004 12.9186 -20.6419
head 6.37667 5.48982 -7.67761
rclavicle 1.10325e-014 -3.97569e-016
rhumerus 65.3899 -16.5091 -19.8957
rradius 64.6286
rwrist -5.60522
rhand -49.1899 62.0933
rfingers 7.12502
rthumb -21.8114 33.3024
lclavicle 1.10325e-014 -3.97569e-016
lhumerus 63.0424 17.5352 15.7934
lradius 44.1267
lwrist -1.79141
lhand -46.9467 -3.59208
lfingers 7.12502
lthumb -19.6561 25.4342
rfemur 5.84872 8.93518 24.5956
rtibia 25.7424
rfoot -33.1963 -29.2988
rtoes -19.8854
lfemur 8.39698 -12.855 -22.514
ltibia 22.5278
lfoot -25.4801 25.1884
ltoes -8.84498
